<svg width="378" height="209" viewBox="0 0 378 209" fill="none" xmlns="http://www.w3.org/2000/svg">
<path d="M13.366 44.69C5.166 44.69 0 39.852 0 32.39C0 23.698 7.134 20.336 16.072 18.45C20.664 17.466 27.142 16.81 27.142 12.628C27.142 10.332 25.338 8.856 21.566 8.856C16.728 8.856 14.514 10.824 14.104 14.924H1.64C2.05 6.888 7.954 0 22.14 0C33.538 0 39.852 4.592 39.852 17.466V33.702C39.852 35.916 40.098 36.9 41.41 36.9C41.738 36.9 41.984 36.9 42.476 36.818V43.05C39.852 43.542 37.146 43.788 35.26 43.788C30.012 43.788 28.044 41.82 27.388 38.294H27.224C24.272 41.984 19.434 44.69 13.366 44.69ZM18.86 35.67C24.108 35.67 27.142 31.242 27.142 26.404V22.878C25.42 23.534 23.452 24.026 20.008 24.846C15.17 25.994 13.448 28.044 13.448 30.996C13.448 34.194 15.498 35.67 18.86 35.67Z" fill="white"/>
<path d="M75.3132 25.666V1.394H88.4332V43.378H75.3132V37.31H75.1492C72.9352 41.164 68.8352 44.69 61.3732 44.69C53.2552 44.69 47.7612 39.36 47.7612 29.766V1.394H60.8812V25.584C60.8812 31.898 63.0952 34.03 67.4412 34.03C72.4432 34.03 75.3132 31.488 75.3132 25.666Z" fill="white"/>
<path d="M119.188 1.066C120.336 1.066 121.32 1.066 122.796 1.394V12.874C121.73 12.71 120.992 12.628 120.09 12.628C114.186 12.628 108.774 16.318 108.774 23.862V43.378H95.6536V1.394H108.774V8.282H108.938C110.988 3.854 114.596 1.066 119.188 1.066Z" fill="white"/>
<path d="M154.51 25.666V1.394H167.63V43.378H154.51V37.31H154.346C152.132 41.164 148.032 44.69 140.57 44.69C132.452 44.69 126.958 39.36 126.958 29.766V1.394H140.078V25.584C140.078 31.898 142.292 34.03 146.638 34.03C151.64 34.03 154.51 31.488 154.51 25.666Z" fill="white"/>
<path d="M226.511 0.0820038C234.957 0.0820038 239.959 5.412 239.959 15.006V43.378H226.675V19.188C226.675 12.874 225.363 10.742 220.689 10.742C216.507 10.742 213.883 13.284 213.883 19.106V43.378H200.763V19.188C200.763 12.874 199.451 10.742 194.777 10.742C190.677 10.742 187.971 13.284 187.971 19.106V43.378H174.851V1.394H187.971V7.462H188.135C190.349 3.608 194.941 0.0820038 201.255 0.0820038C206.749 0.0820038 210.603 3.116 212.243 7.462H212.407C216.015 3.28 219.705 0.0820038 226.511 0.0820038Z" fill="white"/>
<path d="M25.256 83.066C26.404 83.066 27.388 83.066 28.864 83.394V94.874C27.798 94.71 27.06 94.628 26.158 94.628C20.254 94.628 14.842 98.318 14.842 105.862V125.378H1.722V83.394H14.842V90.282H15.006C17.056 85.854 20.664 83.066 25.256 83.066Z" fill="white"/>
<path d="M73.4835 105.944V107.912H43.3075C43.3075 113.734 47.4075 116.932 52.3275 116.932C57.0015 116.932 58.9695 114.8 59.7895 112.668H73.1555C70.7775 121.196 63.8075 126.772 51.9995 126.772C38.3875 126.772 30.1875 117.506 30.1875 104.386C30.1875 92.086 37.8955 82 51.9995 82C66.2675 82 73.4835 90.446 73.4835 105.944ZM43.3895 99.794H60.2815C60.2815 94.382 57.0835 91.512 51.9995 91.512C46.9975 91.512 43.7175 94.382 43.3895 99.794Z" fill="white"/>
<path d="M97.6114 126.69C82.9334 126.69 77.1934 119.638 76.8654 111.438H89.1654C89.5754 115.62 92.3634 117.67 97.3654 117.67C101.219 117.67 102.941 116.44 102.941 114.062C102.941 110.29 98.7594 109.88 92.6914 108.486C85.3114 106.764 77.6854 103.812 77.6854 95.284C77.6854 87.412 84.2454 82.082 96.0534 82.082C109.501 82.082 114.749 88.888 115.159 96.268H102.859C102.449 92.906 100.645 91.102 96.2994 91.102C92.6914 91.102 91.1334 92.414 91.1334 94.464C91.1334 97.252 93.5934 97.416 99.9074 98.892C108.189 100.86 116.389 103.32 116.389 113.078C116.389 121.852 109.747 126.69 97.6114 126.69Z" fill="white"/>
<path d="M142.099 126.772C128.241 126.772 119.795 117.752 119.795 104.468C119.795 91.266 128.241 82 142.345 82C156.203 82 164.649 91.02 164.649 104.222C164.649 117.506 156.203 126.772 142.099 126.772ZM142.263 116.932C148.085 116.932 151.365 112.504 151.365 104.386C151.365 96.268 148.085 91.84 142.263 91.84C136.359 91.84 133.079 96.268 133.079 104.386C133.079 112.504 136.359 116.932 142.263 116.932Z" fill="white"/>
<path d="M197.352 107.666V83.394H210.472V125.378H197.352V119.31H197.188C194.974 123.164 190.874 126.69 183.412 126.69C175.294 126.69 169.8 121.36 169.8 111.766V83.394H182.92V107.584C182.92 113.898 185.134 116.03 189.48 116.03C194.482 116.03 197.352 113.488 197.352 107.666Z" fill="white"/>
<path d="M241.227 83.066C242.375 83.066 243.359 83.066 244.835 83.394V94.874C243.769 94.71 243.031 94.628 242.129 94.628C236.225 94.628 230.813 98.318 230.813 105.862V125.378H217.693V83.394H230.813V90.282H230.977C233.027 85.854 236.635 83.066 241.227 83.066Z" fill="white"/>
<path d="M267.806 126.772C254.522 126.772 246.158 117.506 246.158 104.386C246.158 91.348 254.522 82 267.478 82C279.614 82 286.994 89.216 288.06 99.056H274.858C274.448 95.612 272.972 91.84 267.724 91.84C262.312 91.84 259.606 96.514 259.606 104.386C259.606 112.258 262.23 116.932 267.724 116.932C272.89 116.932 274.448 113.406 274.858 109.552H288.06C287.404 119.556 279.86 126.772 267.806 126.772Z" fill="white"/>
<path d="M334.458 105.944V107.912H304.282C304.282 113.734 308.382 116.932 313.302 116.932C317.976 116.932 319.944 114.8 320.764 112.668H334.13C331.752 121.196 324.782 126.772 312.974 126.772C299.362 126.772 291.162 117.506 291.162 104.386C291.162 92.086 298.87 82 312.974 82C327.242 82 334.458 90.446 334.458 105.944ZM304.364 99.794H321.256C321.256 94.382 318.058 91.512 312.974 91.512C307.972 91.512 304.692 94.382 304.364 99.794Z" fill="white"/>
<path d="M358.586 126.69C343.908 126.69 338.168 119.638 337.84 111.438H350.14C350.55 115.62 353.338 117.67 358.34 117.67C362.194 117.67 363.916 116.44 363.916 114.062C363.916 110.29 359.734 109.88 353.666 108.486C346.286 106.764 338.66 103.812 338.66 95.284C338.66 87.412 345.22 82.082 357.028 82.082C370.476 82.082 375.724 88.888 376.134 96.268H363.834C363.424 92.906 361.62 91.102 357.274 91.102C353.666 91.102 352.108 92.414 352.108 94.464C352.108 97.252 354.568 97.416 360.882 98.892C369.164 100.86 377.364 103.32 377.364 113.078C377.364 121.852 370.722 126.69 358.586 126.69Z" fill="white"/>
<path d="M14.842 207.378H1.722V148.748H14.842V207.378Z" fill="white"/>
<path d="M35.1818 160.392H22.0618V148.748H35.1818V160.392ZM35.1818 207.378H22.0618V165.394H35.1818V207.378Z" fill="white"/>
<path d="M94.0617 164.082C102.508 164.082 107.51 169.412 107.51 179.006V207.378H94.2257V183.188C94.2257 176.874 92.9137 174.742 88.2397 174.742C84.0577 174.742 81.4337 177.284 81.4337 183.106V207.378H68.3137V183.188C68.3137 176.874 67.0017 174.742 62.3277 174.742C58.2277 174.742 55.5217 177.284 55.5217 183.106V207.378H42.4017V165.394H55.5217V171.462H55.6857C57.8997 167.608 62.4917 164.082 68.8057 164.082C74.2997 164.082 78.1537 167.116 79.7937 171.462H79.9577C83.5657 167.28 87.2557 164.082 94.0617 164.082Z" fill="white"/>
<path d="M127.592 160.392H114.472V148.748H127.592V160.392ZM127.592 207.378H114.472V165.394H127.592V207.378Z" fill="white"/>
<path d="M155.558 198.358C156.788 198.358 157.526 198.276 159.084 198.03V207.296C156.296 207.952 153.918 208.198 151.294 208.198C142.11 208.198 138.174 204.016 138.174 193.766V175.234H132.352V165.394H138.174V153.668H151.294V165.394H158.592V175.234H151.294V193.438C151.294 197.948 153.016 198.358 155.558 198.358Z" fill="white"/>
<path d="M205.372 187.944V189.912H175.196C175.196 195.734 179.296 198.932 184.216 198.932C188.89 198.932 190.858 196.8 191.678 194.668H205.044C202.666 203.196 195.696 208.772 183.888 208.772C170.276 208.772 162.076 199.506 162.076 186.386C162.076 174.086 169.784 164 183.888 164C198.156 164 205.372 172.446 205.372 187.944ZM175.278 181.794H192.17C192.17 176.382 188.972 173.512 183.888 173.512C178.886 173.512 175.606 176.382 175.278 181.794Z" fill="white"/>
<path d="M239.75 169.576V148.748H252.87V207.378H239.75V203.196H239.586C237.946 205.41 233.518 208.69 227.45 208.69C216.298 208.69 209.164 200.162 209.164 186.386C209.164 172.61 216.298 164.082 227.45 164.082C233.518 164.082 237.946 167.362 239.586 169.576H239.75ZM231.058 198.85C236.388 198.85 239.504 194.586 239.504 186.386C239.504 178.186 236.388 173.922 231.058 173.922C225.728 173.922 222.612 178.186 222.612 186.386C222.612 194.586 225.728 198.85 231.058 198.85Z" fill="white"/>
</svg>
